<svg width="64" height="58" viewBox="0 0 64 58" fill="none" xmlns="http://www.w3.org/2000/svg">
<path d="M63.9481 6.04812C63.8222 5.66299 63.4894 5.38149 63.0873 5.32274L59.2665 4.76698L57.5566 1.30455C57.1982 0.574915 56.0025 0.574915 55.6441 1.30455L53.9342 4.76698L50.1132 5.32286C49.7111 5.38149 49.3784 5.66212 49.2514 6.04825C49.1266 6.43438 49.23 6.85889 49.5212 7.14164L52.2872 9.83718L51.6344 13.6431C51.5661 14.0431 51.7304 14.4474 52.0579 14.6864C52.3897 14.9275 52.8227 14.9573 53.1822 14.7674L56.5998 12.97L60.0175 14.7674C60.1733 14.8495 60.345 14.89 60.5146 14.89C60.7354 14.89 60.9563 14.8218 61.1419 14.6863C61.4704 14.4474 61.6347 14.043 61.5654 13.643L60.9127 9.83706L63.6786 7.14151C63.9683 6.85776 64.073 6.43425 63.9481 6.04812ZM59.0223 8.70204C58.7716 8.94629 58.6564 9.30042 58.7161 9.64605L59.098 11.8743L57.097 10.8226C56.9412 10.7404 56.7706 10.6999 56.5998 10.6999C56.4292 10.6999 56.2596 10.7404 56.1027 10.8226L54.1016 11.8743L54.4834 9.64605C54.5432 9.30042 54.4279 8.94742 54.1773 8.70204L52.557 7.12339L54.7949 6.79801C55.1427 6.74788 55.4424 6.52926 55.5982 6.2145L56.5987 4.18785L57.5992 6.2145C57.755 6.52913 58.0547 6.74788 58.4025 6.79801L60.6404 7.12339L59.0223 8.70204Z" fill="#4D5AE5"/>
<path d="M52.267 38.0444H50.1335V40.1778H52.267V38.0444Z" fill="#4D5AE5"/>
<path d="M52.267 42.3112H50.1335V44.4446H52.267V42.3112Z" fill="#4D5AE5"/>
<path d="M54.4004 40.1778H52.267V42.3112H54.4004V40.1778Z" fill="#4D5AE5"/>
<path d="M50.1337 40.1778H48.0002V42.3112H50.1337V40.1778Z" fill="#4D5AE5"/>
<path d="M44.8001 49.778H42.6667V51.9113H44.8001V49.778Z" fill="#4D5AE5"/>
<path d="M44.8001 54.0446H42.6667V56.1781H44.8001V54.0446Z" fill="#4D5AE5"/>
<path d="M46.9336 51.9113H44.8002V54.0448H46.9336V51.9113Z" fill="#4D5AE5"/>
<path d="M42.6667 51.9113H40.5333V54.0448H42.6667V51.9113Z" fill="#4D5AE5"/>
<path d="M32 45.5113H29.8666V47.6447H32V45.5113Z" fill="#4D5AE5"/>
<path d="M32 49.778H29.8666V51.9113H32V49.778Z" fill="#4D5AE5"/>
<path d="M34.1334 47.6445H32V49.7779H34.1334V47.6445Z" fill="#4D5AE5"/>
<path d="M29.8666 47.6445H27.7332V49.7779H29.8666V47.6445Z" fill="#4D5AE5"/>
<path d="M11.733 9.24393H9.59961V11.3773H11.733V9.24393Z" fill="#4D5AE5"/>
<path d="M11.733 13.5108H9.59961V15.6442H11.733V13.5108Z" fill="#4D5AE5"/>
<path d="M13.8663 11.3774H11.7329V13.5108H13.8663V11.3774Z" fill="#4D5AE5"/>
<path d="M9.59959 11.3774H7.46619V13.5108H9.59959V11.3774Z" fill="#4D5AE5"/>
<path d="M49.4295 25.3189C48.8546 24.5434 48.0109 24.0443 47.053 23.9098C46.0908 23.7733 45.1414 24.026 44.3734 24.6138L41.8699 26.5327L41.8688 26.5338L38.0734 29.368L35.3577 28.2864C40.2004 26.1136 43.585 21.2698 43.585 15.6462C43.585 8.00017 37.3396 1.77933 29.6627 1.77933C21.9858 1.77933 15.7405 8.00017 15.7405 15.6462C15.7405 18.4175 16.5692 20.9945 17.9805 23.163L12.4529 23.115C12.4497 23.115 12.4465 23.115 12.4433 23.115C12.4262 23.115 12.4124 23.1235 12.3964 23.1247C12.2908 23.1289 12.1873 23.1503 12.086 23.1865C12.0604 23.1962 12.0338 23.2015 12.0093 23.2132C11.9965 23.2185 11.9837 23.2195 11.9709 23.2259L5.50468 26.4185C5.50356 26.4185 5.50256 26.4185 5.50256 26.4195L1.71575 28.2405C1.67412 28.2586 1.6315 28.2831 1.58987 28.3109C0.0804746 29.3156 -0.433659 31.289 0.393104 32.9018C0.833611 33.7594 1.5835 34.391 2.50514 34.68C2.86039 34.7908 3.22302 34.8453 3.58353 34.8453C4.16279 34.8453 4.73667 34.7035 5.26243 34.423L8.03797 32.9467L12.566 30.6085L15.2797 30.5925L4.39629 41.4237C4.39529 41.4248 4.39417 41.4248 4.39304 41.4258L1.71563 44.0925C1.08312 44.7219 0.73536 45.557 0.73536 46.4478C0.73536 47.3374 1.08312 48.1747 1.71563 48.8052C2.36526 49.4516 3.21965 49.7758 4.07404 49.7758C4.92955 49.7758 5.78281 49.4516 6.43457 48.8052L9.06287 46.1875L12.5445 43.588L14.3462 45.3821L10.8229 48.8904C10.8219 48.8916 10.8208 48.8916 10.8196 48.8926L8.14223 51.5592C7.50972 52.1886 7.16196 53.0237 7.16196 53.9145C7.16196 54.8041 7.50972 55.6414 8.14223 56.2719C8.79186 56.9183 9.64738 57.2426 10.5018 57.2426C11.3562 57.2426 12.2117 56.9183 12.8623 56.2719L15.5407 53.6052L19.8255 49.3386C19.8267 49.3374 19.8267 49.3364 19.8277 49.3353L21.8469 47.3353L21.8394 47.3278C21.8522 47.315 21.8703 47.3106 21.8832 47.2969L32.2151 35.9805L39.1571 36.9682C39.2072 36.9757 39.2573 36.9789 39.3075 36.9789C39.4366 36.9789 39.5613 36.948 39.6818 36.9021C39.7171 36.8894 39.748 36.8722 39.7811 36.8552C39.8195 36.836 39.86 36.8254 39.8963 36.8009L46.3231 32.5342C46.3466 32.5182 46.3593 32.4925 46.3817 32.4755C46.4073 32.4553 46.4393 32.4468 46.4627 32.4243L49.0056 30.0424C50.3288 28.8026 50.5111 26.7717 49.4295 25.3189ZM4.26079 32.5403C3.91416 32.7259 3.52053 32.7632 3.14402 32.6438C2.77064 32.5275 2.46776 32.2725 2.29063 31.928C1.9685 31.3008 2.15513 30.537 2.71939 30.1243L5.34668 28.8602L5.97919 30.7088L6.24482 31.4853L4.26079 32.5403ZM11.255 28.8849L8.15848 30.4849L7.64759 28.9915L7.28071 27.9184L11.3342 25.9172L11.255 28.8849ZM41.4539 15.644C41.4539 17.4808 41.0155 19.2132 40.256 20.763L31.8932 16.9646C31.8057 15.8179 31.2106 14.8142 30.3167 14.189L33.2447 4.46837C38.0001 5.98102 41.4539 10.4173 41.4539 15.644ZM17.876 15.644C17.876 9.17457 23.1646 3.91049 29.6649 3.91049C30.1706 3.91049 30.6655 3.95311 31.1551 4.01499L28.291 13.5224C28.2527 13.5213 28.2164 13.5106 28.1769 13.5106C26.1118 13.5106 24.4317 15.1853 24.4317 17.2441C24.4317 19.3027 26.1118 20.9775 28.1769 20.9775C29.5657 20.9775 30.7657 20.2106 31.4132 19.0883L39.1381 22.5978C36.9887 25.4906 33.5486 27.3776 29.6648 27.3776C23.1646 27.3776 17.876 22.1135 17.876 15.644ZM29.7887 17.2441C29.7887 18.1262 29.0654 18.8441 28.1769 18.8441C27.2884 18.8441 26.5651 18.1262 26.5651 17.2441C26.5651 16.3619 27.2884 15.644 28.1769 15.644C29.0654 15.644 29.7887 16.3619 29.7887 17.2441ZM4.92968 47.2925C4.45717 47.7608 3.69228 47.7598 3.2209 47.2936C2.99365 47.0664 2.86889 46.7668 2.86889 46.4478C2.86889 46.1299 2.99365 45.8301 3.2209 45.6051L5.14505 43.6882L6.84746 45.3832L4.92968 47.2925ZM11.3574 54.7594C10.8849 55.2276 10.119 55.2288 9.6475 54.7605C9.42025 54.5333 9.29549 54.2336 9.29549 53.9146C9.29549 53.5967 9.42025 53.297 9.6475 53.072L11.5729 51.1541L12.3783 51.9552L13.2764 52.8491L11.3574 54.7594ZM18.3208 47.8217C18.3196 47.8227 18.3186 47.8227 18.3175 47.8238L14.7878 51.3438L13.9824 50.5427L13.0843 49.6488L16.6107 46.1384C16.6107 46.1384 16.6107 46.1384 16.6107 46.1374C16.6119 46.1363 16.6129 46.1363 16.614 46.1353C16.694 46.0553 16.7441 45.9593 16.7932 45.8644C16.8071 45.8366 16.8337 45.8131 16.8455 45.7844C16.8786 45.7023 16.8839 45.6138 16.8967 45.5272C16.9031 45.4781 16.9245 45.4324 16.9245 45.3821C16.9245 45.3106 16.8989 45.2414 16.884 45.1709C16.8712 45.1069 16.8712 45.0417 16.8466 44.98C16.8061 44.8797 16.7367 44.7912 16.6642 44.7047C16.644 44.6812 16.6365 44.6514 16.6141 44.629C16.6141 44.629 16.6141 44.629 16.613 44.629C16.6119 44.628 16.6119 44.6257 16.6109 44.6247L13.3969 41.4247C13.3628 41.3906 13.3191 41.3767 13.2807 41.3479C13.2242 41.3042 13.1698 41.2637 13.1068 41.2327C13.0461 41.2028 12.9842 41.1847 12.9202 41.1676C12.8519 41.1483 12.7858 41.1334 12.7143 41.1281C12.6492 41.1238 12.5884 41.1302 12.5234 41.1377C12.4519 41.1462 12.3848 41.1558 12.3154 41.1782C12.2482 41.1996 12.1885 41.2326 12.1267 41.2678C12.0872 41.2902 12.0424 41.2977 12.005 41.3254L8.45836 43.973L6.6567 42.1788L11.4547 37.4065L20.1759 45.9838L18.3208 47.8217ZM31.9584 33.7883C31.9275 33.7841 31.8986 33.7958 31.8677 33.7937C31.7898 33.7894 31.7152 33.7948 31.6373 33.8076C31.5766 33.8182 31.519 33.8299 31.4613 33.8502C31.3931 33.8737 31.3312 33.9057 31.2682 33.9441C31.2085 33.9803 31.1541 34.0187 31.1018 34.0667C31.0762 34.0891 31.0453 34.0998 31.0218 34.1253L21.6253 44.4167L12.9692 35.9035L18.6354 30.2671C19.0525 29.8511 19.0546 29.1759 18.6386 28.7577C18.4285 28.5476 18.1523 28.4441 17.876 28.4452V28.4442L13.4386 28.4709L13.4941 25.2559L19.7022 25.3093C22.2323 27.8971 25.7609 29.511 29.6649 29.511C30.5396 29.511 31.393 29.4204 32.2239 29.2656C32.3039 29.3296 32.3827 29.3948 32.4831 29.4353L37.3024 31.3553L37.6074 32.8721L37.9637 34.6427L31.9584 33.7883ZM40.0406 34.1446L39.4145 31.0288L42.3073 28.8687L43.0647 29.8735L44.2007 31.3818L40.0406 34.1446ZM47.5478 28.4826L45.8721 30.0528L44.0097 27.5802L45.6726 26.3056C45.9829 26.0667 46.3745 25.9696 46.7585 26.0197C47.1446 26.0741 47.486 26.2757 47.7185 26.5882C48.1516 27.1717 48.078 27.9856 47.5478 28.4826Z" fill="#2E2F42"/>
<path d="M27.2041 34.0881L22.9182 29.8214C22.5033 29.4065 21.829 29.4065 21.413 29.8214L17.1282 34.0881C16.9277 34.2897 16.8146 34.5606 16.8146 34.8443C16.8146 35.1281 16.9266 35.4001 17.1282 35.6006L21.413 39.8673C21.621 40.0742 21.8942 40.1777 22.1662 40.1777C22.4382 40.1777 22.7112 40.0742 22.9182 39.8673L27.2041 35.6006C27.4046 35.4001 27.5187 35.1281 27.5187 34.8443C27.5187 34.5606 27.4056 34.2886 27.2041 34.0881ZM22.1662 37.606L19.3927 34.8443L22.1662 32.0827L24.9406 34.8443L22.1662 37.606Z" fill="#2E2F42"/>
<path d="M34.3285 7.14154L33.8132 9.21307C33.9551 9.24832 37.2885 10.1166 37.2885 13.5108H39.4219C39.4218 9.47645 36.0906 7.57992 34.3285 7.14154Z" fill="#2E2F42"/>
<path d="M39.422 15.644H37.2886V17.7775H39.422V15.644Z" fill="#2E2F42"/>
</svg>
