<svg xmlns="http://www.w3.org/2000/svg" aria-hidden="true" style="position: absolute; width: 0; height: 0; overflow: hidden;">
  <defs>
    <symbol id="strategy" viewBox="0 0 32 32">
      <path fill="#2e2f42" d="m30.773 22.098-8.443-8.505.937-4.615c.242.094.499.144.758.146h.006c1.192.014 2.17-.941 2.184-2.133s-.941-2.17-2.133-2.184c-1.192-.014-2.17.941-2.184 2.133-.003.255.039.509.125.749l-4.96.605L8.972.161C8.873.06 8.737.002 8.595.001c-.14.001-.274.056-.373.155L6.709 1.66c-.208.208-.208.546 0 .754l.814.826C4.37 9.038 5.394 16.218 10.042 20.903c.043.041.092.074.146.098-.034.18-.051.364-.052.547v6.187h-6.4c-1.472.002-2.665 1.195-2.667 2.667v1.067c0 .295.239.533.533.533h24.533c.295 0 .533-.239.533-.533v-1.067c-.002-1.472-1.195-2.665-2.667-2.667h-6.4v-2.742c1.003.21 2.024.317 3.049.32 2.458-.003 4.877-.615 7.04-1.783l.818.823c.099.101.235.159.377.16.14-.001.274-.056.373-.155l1.513-1.504c.208-.208.208-.546 0-.754zM23.28 6.233c.418-.415 1.093-.414 1.509.004s.414 1.093-.004 1.508c-.2.199-.47.31-.752.31h-.003c-.589-.003-1.064-.483-1.061-1.072.002-.282.115-.552.314-.751h-.002zm-1.256 3.505-.598 2.946-1.175-1.182 1.774-1.763zm-.605-.902-1.92 1.909-1.485-1.493 3.405-.415zM24.004 28.8c.884 0 1.6.716 1.6 1.6v.533H2.137V30.4c0-.884.716-1.6 1.6-1.6h20.267zm-7.467-2.133v1.067h-5.333v-1.067h5.333zM11.204 25.6v-4.053c0-1.294 1.196-2.347 2.667-2.347s2.667 1.053 2.667 2.347V25.6h-5.333zm6.4-1.696v-2.357c0-1.882-1.675-3.413-3.733-3.413-1.331-.02-2.576.657-3.281 1.786C6.532 15.646 5.619 9.275 8.311 4.033l18.602 18.708c-2.872 1.461-6.165 1.873-9.309 1.163zm11.289-.684L7.836 2.039l.755-.752 7.935 7.98c.004 0 .006.007.01.01l13.115 13.191-.757.752z" style="fill: var(--color1, #2e2f42)"/>
      <path fill="#4d5ae5" d="M13.876 20.267h-.005c-.884-.001-1.601.714-1.602 1.598s.714 1.601 1.598 1.602h.005c.884.001 1.601-.714 1.602-1.598s-.714-1.601-1.598-1.602zm.373 1.978c-.1.1-.236.156-.378.155-.295-.002-.532-.242-.531-.536.001-.141.057-.276.157-.375s.233-.154.373-.155c.295.002.532.242.531.536-.001.141-.057.276-.157.375h.005z" style="fill: var(--color2, #4d5ae5)"/>
    </symbol>
    <symbol id="punctuality" viewBox="0 0 32 32">
      <path fill="#2e2f42" d="M31.297 15.301C31.295 6.849 24.442-.002 15.989 0S.686 6.855.688 15.308c.001 6.658 4.307 12.551 10.649 14.576.061.019.124.029.187.029.121 0 .239-.032.342-.094.135-.08.236-.207.283-.356l3.865-12.25c1.057-.005 1.909-.866 1.903-1.923s-.866-1.909-1.923-1.903c-.284.001-.565.067-.82.191l-5.106-5.107c-.253-.245-.657-.238-.902.016-.239.247-.239.639 0 .886l5.103 5.109c-.392.799-.168 1.764.536 2.309l-3.683 11.673C3.844 25.783.118 17.71 2.799 10.432S13.553-.572 20.831 2.109c7.278 2.681 11.004 10.754 8.323 18.032-1.31 3.556-4.001 6.431-7.462 7.973l-.398-1.874c-.073-.345-.411-.565-.756-.492-.109.023-.209.074-.293.148l-3.837 3.426c-.263.234-.287.637-.052.9.076.085.174.149.283.184l4.899 1.564c.335.108.694-.077.802-.412.034-.106.04-.219.017-.328l-.391-1.839c5.664-2.388 9.342-7.942 9.329-14.089zm-15.305-.637c.352 0 .638.286.638.638s-.286.638-.638.638c-.352 0-.638-.285-.638-.638s.285-.638.638-.638zm2.101 14.864 2.184-1.948.603 2.84-2.787-.892z" style="fill: var(--color1, #2e2f42)"/>
      <path fill="#4d5ae5" d="M15.354 3.185V4.46c0 .352.285.638.638.638s.638-.285.638-.638V3.185c0-.352-.286-.638-.638-.638s-.638.286-.638.638zM3.876 14.664c-.352 0-.638.286-.638.638s.285.638.638.638h1.275c.352 0 .638-.285.638-.638s-.285-.638-.638-.638H3.876zM28.108 15.939c.352 0 .638-.285.638-.638s-.285-.638-.638-.638h-1.275c-.352 0-.638.286-.638.638s.286.638.638.638h1.275z" style="fill: var(--color2, #4d5ae5)"/>
    </symbol>
    <symbol id="diligence" viewBox="0 0 32 32">
      <path fill="#4d5ae5" d="M14.925 14.965h1.066v4.798h-1.066v-4.797zM19.19 17.097h1.066v2.665H19.19v-2.665zM10.661 18.696h1.066v1.066h-1.066v-1.066zM7.463 18.163h1.066v1.599H7.463v-1.599z" style="fill: var(--color2, #4d5ae5)"/>
      <path fill="#2e2f42" d="M1.599 28.291h25.587c.883 0 1.599-.716 1.599-1.599V24.56c0-.883-.716-1.599-1.599-1.599h-.533V9.668L29.681 6.8c.703.346 1.553.136 2.013-.499s.396-1.508-.152-2.068-1.42-.644-2.065-.198c-.644.446-.873 1.292-.542 2.002L26.654 8.2V6.97c0-.883-.716-1.599-1.599-1.599H3.733c-.883 0-1.599.716-1.599 1.599v15.992h-.533c-.883 0-1.599.716-1.599 1.599v2.132c0 .883.716 1.599 1.599 1.599zM30.384 4.837c.294 0 .533.239.533.533s-.239.533-.533.533c-.294 0-.533-.239-.533-.533s.239-.533.533-.533zM3.198 6.969c0-.294.239-.533.533-.533h21.322c.294 0 .533.239.533.533v2.239l-1.066 1.013V8.035c0-.294-.239-.533-.533-.533H4.797c-.294 0-.533.239-.533.533v13.326c0 .294.239.533.533.533h19.19c.294 0 .533-.239.533-.533v-9.674l1.066-1.01v12.284H3.198V6.969zm4.798 6.93c-.721-.002-1.354.478-1.546 1.174s.105 1.433.725 1.801c.62.368 1.41.276 1.928-.226l1.853.93c.215.108.476.057.636-.123l3.939-4.431 3.872 2.901c.208.156.498.139.686-.039l3.365-3.188v8.131H5.33V8.569h18.124v2.66l-3.771 3.572-3.904-2.927c-.222-.166-.534-.135-.718.072l-3.993 4.493-1.493-.746c.011-.064.018-.129.02-.193 0-.883-.716-1.599-1.599-1.599zm.533 1.599c0 .294-.239.533-.533.533s-.533-.239-.533-.533c0-.294.239-.533.533-.533s.533.239.533.533zm3.198 8.529h5.331v.533c0 .294-.239.533-.533.533h-4.264c-.294 0-.533-.239-.533-.533v-.533zm-10.661.533c0-.294.239-.533.533-.533h9.062v.533c0 .883.716 1.599 1.599 1.599h4.264c.883 0 1.599-.716 1.599-1.599v-.533h9.062c.294 0 .533.239.533.533v2.132c0 .294-.239.533-.533.533H1.598c-.294 0-.533-.239-.533-.533V24.56z" style="fill: var(--color1, #2e2f42)"/>
    </symbol>
    <symbol id="technologies" viewBox="0 0 32 32">
      <path fill="#4d5ae5" d="M31.974 4.524c-.063-.193-.229-.333-.43-.363l-1.91-.278-.855-1.731c-.179-.365-.777-.365-.956 0l-.855 1.731-1.91.278c-.201.029-.367.17-.431.363-.062.193-.011.405.135.547l1.383 1.348-.326 1.903c-.034.2.048.402.212.522.166.121.382.135.562.04l1.709-.899 1.709.899c.078.041.164.061.249.061.11 0 .221-.034.314-.102.164-.119.246-.322.212-.522l-.326-1.903 1.383-1.348c.145-.142.197-.354.135-.547zm-2.463 1.327c-.125.122-.183.299-.153.472l.191 1.114-1-.526c-.078-.041-.163-.061-.249-.061s-.17.02-.249.061l-1.001.526.191-1.114c.03-.173-.028-.349-.153-.472l-.81-.789 1.119-.163c.174-.025.324-.134.402-.292l.5-1.013.5 1.013c.078.157.228.267.402.292l1.119.163-.809.789zM26.133 20.522h-1.067v1.067h1.067v-1.067zM26.133 22.656h-1.067v1.067h1.067v-1.067zM27.2 21.589h-1.067v1.067H27.2v-1.067zM25.067 21.589H24v1.067h1.067v-1.067zM22.4 26.389h-1.067v1.067H22.4v-1.067zM22.4 28.522h-1.067v1.067H22.4v-1.067zM23.467 27.456H22.4v1.067h1.067v-1.067zM21.333 27.456h-1.067v1.067h1.067v-1.067zM16 24.256h-1.067v1.067H16v-1.067zM16 26.389h-1.067v1.067H16v-1.067zM17.067 25.322H16v1.067h1.067v-1.067zM14.933 25.322h-1.067v1.067h1.067v-1.067zM5.867 6.122H4.8v1.067h1.067V6.122zM5.867 8.255H4.8v1.067h1.067V8.255z" style="fill: var(--color2, #4d5ae5)"/>
      <path fill="#4d5ae5" d="M6.933 7.189H5.866v1.067h1.067V7.189zM4.8 7.189H3.733v1.067H4.8V7.189z" style="fill: var(--color2, #4d5ae5)"/>
      <path fill="#2e2f42" d="M24.715 14.159c-.287-.388-.709-.637-1.188-.705-.481-.068-.956.058-1.34.352l-1.252.96-1.898 1.417-1.358-.541c2.421-1.086 4.114-3.508 4.114-6.32 0-3.823-3.123-6.933-6.961-6.933s-6.961 3.11-6.961 6.933c0 1.386.414 2.674 1.12 3.758l-2.764-.024h-.005c-.009 0-.015.004-.023.005-.053.002-.105.013-.155.031-.013.005-.026.008-.038.013-.006.003-.013.003-.019.006l-3.233 1.596c-.001 0-.001 0-.001.001l-1.893.911c-.021.009-.042.021-.063.035-.755.502-1.012 1.489-.598 2.295.22.429.595.745 1.056.889.178.055.359.083.539.083.29 0 .577-.071.839-.211l1.388-.738 2.264-1.169 1.357-.008L2.2 22.211c-.001.001-.001.001-.002.001L.859 23.545c-.316.315-.49.732-.49 1.178s.174.863.49 1.179c.325.323.752.485 1.179.485s.854-.162 1.18-.485l1.314-1.309 1.741-1.3.901.897-1.762 1.754c0 .001-.001.001-.002.001l-1.339 1.333c-.316.315-.49.732-.49 1.178s.174.863.49 1.179c.325.323.753.485 1.18.485s.855-.162 1.18-.485l3.482-3.467c.001-.001.001-.001.001-.002l1.01-1-.004-.004c.006-.006.015-.009.022-.015l5.166-5.658 3.471.494c.025.004.05.005.075.005.065 0 .127-.015.187-.038.018-.006.033-.015.05-.023.019-.01.039-.015.058-.027l3.213-2.133c.012-.008.018-.021.029-.029.013-.01.029-.014.041-.026l1.271-1.191c.662-.62.753-1.635.212-2.362zM2.13 17.77c-.173.093-.37.111-.558.052-.187-.058-.338-.186-.427-.358-.161-.314-.068-.695.214-.902l1.314-.632.449 1.313-.992.527zm3.498-1.828-1.548.8-.439-1.283 2.027-1.001-.04 1.484zm15.099-6.62c0 .918-.219 1.785-.599 2.559l-4.181-1.899c-.044-.573-.341-1.075-.788-1.388l1.464-4.86c2.378.756 4.105 2.974 4.105 5.588zm-11.789 0c0-3.235 2.644-5.867 5.894-5.867.253 0 .5.021.745.052l-1.432 4.754c-.019-.001-.037-.006-.057-.006-1.033 0-1.873.837-1.873 1.867s.84 1.867 1.873 1.867c.694 0 1.294-.383 1.618-.945l3.862 1.755c-1.075 1.446-2.795 2.39-4.737 2.39-3.25 0-5.894-2.632-5.894-5.867zm5.956.8c0 .441-.362.8-.806.8s-.806-.359-.806-.8c0-.441.362-.8.806-.8s.806.359.806.8zM2.465 25.146c-.236.234-.619.234-.854.001-.114-.114-.176-.263-.176-.423s.062-.309.176-.421l.962-.958.851.848-.959.955zm3.214 3.734c-.236.234-.619.235-.855.001-.114-.114-.176-.263-.176-.423s.062-.309.176-.421l.963-.959.852.848-.96.955zm3.481-3.469c-.001 0-.001 0-.002.001l-1.765 1.76-.852-.848 1.763-1.755s.001-.001.002-.001c.04-.04.065-.088.09-.135.007-.014.02-.026.026-.04.017-.041.019-.085.026-.129.003-.025.014-.047.014-.073 0-.036-.013-.07-.02-.106-.006-.032-.006-.065-.019-.095-.02-.05-.055-.094-.091-.138-.01-.012-.014-.027-.025-.038h-.001c-.001 0-.001-.002-.001-.002l-1.607-1.6c-.017-.017-.039-.024-.058-.038-.028-.022-.055-.042-.087-.058-.03-.015-.061-.024-.093-.033-.034-.01-.067-.017-.103-.02-.033-.002-.063.001-.095.005-.036.004-.069.009-.104.02-.034.011-.063.027-.094.045-.02.011-.042.015-.061.029L4.23 23.486l-.901-.897 2.399-2.386 4.361 4.289-.928.919zm6.819-7.017c-.015-.002-.03.004-.045.003-.039-.002-.076.001-.115.007-.03.005-.059.011-.088.021-.034.012-.065.028-.097.047-.03.018-.057.037-.083.061-.013.011-.028.017-.04.029l-4.698 5.146-4.328-4.257 2.833-2.818c.209-.208.21-.546.002-.755-.105-.105-.243-.157-.381-.156v-.001l-2.219.013.028-1.607 3.104.027c1.265 1.294 3.029 2.101 4.981 2.101.437 0 .864-.045 1.279-.123.04.032.079.065.13.085l2.41.96.152.758.178.885-3.003-.427zm4.041.178-.313-1.558 1.446-1.08.947 1.257-2.08 1.381zm3.754-2.831-.838.785-.931-1.236.831-.637c.155-.119.351-.168.543-.143.193.027.364.128.48.284.217.292.18.699-.085.947z" style="fill: var(--color1, #2e2f42)"/>
      <path fill="#2e2f42" d="m13.602 18.544-2.143-2.133c-.207-.207-.545-.207-.753 0l-2.142 2.133c-.1.101-.157.236-.157.378s.056.278.157.378l2.142 2.133c.104.103.241.155.377.155s.273-.052.376-.155l2.143-2.133c.1-.1.157-.236.157-.378s-.057-.278-.157-.378zm-2.519 1.759-1.387-1.381 1.387-1.381 1.387 1.381-1.387 1.381zM17.164 5.071l-.258 1.036c.071.018 1.738.452 1.738 2.149h1.067c0-2.017-1.666-2.965-2.547-3.185zM19.711 9.322h-1.067v1.067h1.067V9.322z" style="fill: var(--color1, #2e2f42)"/>
    </symbol>
    <symbol id="instagram" viewBox="0 0 32 32">
      <path d="M31.969 9.408c-.075-1.7-.35-2.869-.744-3.882-.406-1.075-1.031-2.038-1.85-2.838-.8-.813-1.769-1.444-2.832-1.844C25.524.45 24.361.175 22.661.1 20.948.019 20.404 0 16.06 0s-4.888.019-6.595.094c-1.7.075-2.869.35-3.882.744-1.075.406-2.038 1.031-2.838 1.85-.813.8-1.444 1.769-1.844 2.832C.507 6.539.232 7.702.157 9.402c-.081 1.713-.1 2.257-.1 6.601s.019 4.888.094 6.595c.075 1.7.35 2.869.744 3.882.406 1.075 1.038 2.038 1.85 2.838.8.813 1.769 1.444 2.832 1.844 1.019.394 2.182.669 3.882.744 1.706.075 2.25.094 6.595.094s4.888-.018 6.595-.094c1.7-.075 2.869-.35 3.882-.744 2.151-.831 3.851-2.532 4.682-4.682.394-1.019.669-2.182.744-3.882.075-1.707.094-2.251.094-6.595s-.006-4.888-.081-6.595zm-2.882 13.065c-.069 1.563-.331 2.407-.55 2.969-.538 1.394-1.644 2.501-3.038 3.038-.563.219-1.413.481-2.969.55-1.688.075-2.194.094-6.464.094s-4.782-.018-6.464-.094c-1.563-.069-2.407-.331-2.969-.55-.694-.256-1.325-.663-1.838-1.194-.531-.519-.938-1.144-1.194-1.838-.219-.563-.481-1.413-.55-2.969-.075-1.688-.094-2.194-.094-6.464s.019-4.782.094-6.464c.069-1.563.331-2.407.55-2.969.256-.694.663-1.325 1.2-1.838.519-.531 1.144-.938 1.838-1.194.563-.219 1.413-.481 2.969-.55 1.688-.075 2.194-.094 6.464-.094 4.276 0 4.782.019 6.464.094 1.563.069 2.407.331 2.969.55.694.256 1.325.662 1.838 1.194.531.519.938 1.144 1.194 1.838.219.563.481 1.413.55 2.969.075 1.688.094 2.194.094 6.464s-.019 4.77-.094 6.457z"/>
      <path d="M16.059 7.782c-4.538 0-8.22 3.682-8.22 8.22s3.682 8.22 8.22 8.22 8.22-3.682 8.22-8.22-3.682-8.22-8.22-8.22zm0 13.553c-2.944 0-5.332-2.388-5.332-5.332s2.388-5.332 5.332-5.332 5.332 2.388 5.332 5.332-2.388 5.332-5.332 5.332zM26.524 7.457c0 1.06-.859 1.919-1.919 1.919s-1.919-.859-1.919-1.919.859-1.919 1.919-1.919 1.919.859 1.919 1.919z"/>
    </symbol>
    <symbol id="twitter" viewBox="0 0 32 32">
      <path d="M32 6.078c-1.19.522-2.458.868-3.78 1.036 1.36-.812 2.398-2.088 2.886-3.626-1.268.756-2.668 1.29-4.16 1.588C25.742 3.794 24.026 3 22.154 3c-3.632 0-6.556 2.948-6.556 6.562 0 .52.044 1.02.152 1.496-5.454-.266-10.28-2.88-13.522-6.862-.566.982-.898 2.106-.898 3.316 0 2.272 1.17 4.286 2.914 5.452-1.054-.02-2.088-.326-2.964-.808v.072c0 3.188 2.274 5.836 5.256 6.446-.534.146-1.116.216-1.72.216-.42 0-.844-.024-1.242-.112.85 2.598 3.262 4.508 6.13 4.57-2.232 1.746-5.066 2.798-8.134 2.798-.538 0-1.054-.024-1.57-.09C2.906 27.93 6.35 29 10.064 29c12.072 0 18.672-10 18.672-18.668 0-.29-.01-.57-.024-.848C30.014 8.56 31.108 7.406 32 6.078z"/>
    </symbol>
    <symbol id="facebook" viewBox="0 0 32 32">
      <path d="M21.329 5.313h2.921V.225C23.746.156 22.013 0 19.994 0c-4.212 0-7.097 2.649-7.097 7.519V12H8.249v5.688h4.648V32h5.699V17.689h4.46l.708-5.688h-5.169V8.082c.001-1.644.444-2.769 2.735-2.769z"/>
    </symbol>
    <symbol id="linkedin" viewBox="0 0 32 32">
      <path d="M31.992 32v-.001H32V20.263c0-5.741-1.236-10.164-7.948-10.164-3.227 0-5.392 1.771-6.276 3.449h-.093v-2.913h-6.364v21.364h6.627V21.42c0-2.785.528-5.479 3.977-5.479 3.399 0 3.449 3.179 3.449 5.657v10.401h6.62zM.528 10.636h6.635V32H.528V10.636zM3.843 0C1.722 0 0 1.721 0 3.843s1.721 3.879 3.843 3.879c2.121 0 3.843-1.757 3.843-3.879C7.685 1.722 5.963 0 3.843 0z"/>
    </symbol>
    <symbol id="customer1" viewBox="8 8 16 16">
      <path d="m11.692 9.538 2.156 2.054-4.002-.002v9.967h10.462v-3.811l2.154 2.052V9.538H11.693zm8.521 7.967-6.114-5.825h6.114v5.825zm-1.898 2.594h-6.813v-6.703h.482v6.249h6.332v.454zm-5.455 3.304-.254-.522h-.21l.368.691v.403h.19v-.403l.368-.691h-.209l-.254.522zm.936-.522h.045l.413 1.094h-.198l-.088-.256h-.423l-.088.256h-.198l.412-1.094h.126zm-.2.688h.32l-.16-.464-.16.464zm1.322-.181c-.008-.011-.016-.021-.024-.031-.028-.037-.05-.073-.065-.107s-.023-.071-.023-.108c0-.057.012-.106.035-.147s.057-.073.1-.095c.043-.023.093-.034.151-.034.056 0 .103.011.143.034s.072.051.093.088c.022.037.033.077.033.12 0 .035-.006.066-.019.095s-.03.055-.052.078c-.022.024-.048.046-.077.067l-.076.055.217.256c.007-.014.014-.029.019-.044.019-.048.028-.101.028-.16h.156c0 .053-.005.103-.016.151s-.026.092-.049.132c-.009.017-.019.033-.031.048l.16.189h-.21l-.064-.075c-.034.026-.072.047-.112.061-.053.019-.11.029-.17.029-.073 0-.135-.013-.189-.04s-.094-.063-.123-.11c-.029-.047-.043-.1-.043-.16 0-.045.009-.084.028-.117s.044-.066.076-.095c.03-.027.063-.054.101-.081zm.089.11-.023.016c-.027.022-.046.042-.059.062s-.021.038-.025.054-.006.031-.006.044c0 .032.007.061.02.087s.034.047.061.062c.027.015.06.023.098.023.042 0 .082-.009.121-.028.02-.01.038-.021.056-.034l-.243-.286zm.044-.2.067-.045c.032-.021.054-.042.068-.062s.02-.046.02-.077c0-.026-.01-.05-.03-.072s-.048-.033-.085-.033c-.026 0-.047.006-.065.018s-.031.027-.04.047c-.009.019-.013.04-.013.064 0 .023.006.046.017.07s.027.048.047.074c.004.005.008.011.013.016zm1.913.321h-.188c-.006.048-.017.088-.035.121s-.042.057-.076.074c-.033.017-.076.026-.13.026-.044 0-.082-.009-.113-.026s-.058-.042-.078-.074c-.02-.032-.035-.07-.045-.115s-.014-.095-.014-.15v-.092c0-.058.005-.11.016-.155s.027-.084.049-.115.048-.055.08-.071c.032-.016.07-.024.113-.024.053 0 .095.009.128.027s.057.043.074.077c.017.034.028.074.033.121h.188c-.008-.073-.028-.138-.062-.195s-.08-.101-.14-.133-.134-.048-.221-.048c-.069 0-.13.012-.186.036s-.101.059-.14.104c-.039.045-.069.099-.09.163s-.031.135-.031.213v.091c0 .079.01.15.03.213s.05.118.089.163c.039.045.085.079.139.104s.115.036.183.036c.088 0 .163-.016.225-.048s.109-.076.143-.131c.034-.056.054-.12.06-.192zm1.044-.161v-.06c0-.083-.011-.157-.033-.222s-.052-.121-.092-.168c-.04-.047-.088-.082-.143-.106s-.117-.037-.185-.037c-.067 0-.128.012-.184.037s-.103.059-.143.106c-.04.046-.071.102-.093.168s-.033.139-.033.222v.06c0 .083.011.157.033.222s.054.121.095.168.088.081.143.106c.056.024.117.036.184.036s.129-.012.185-.036c.056-.025.103-.06.143-.106s.071-.102.092-.168.032-.14.032-.222zm-.189-.061v.062c0 .061-.006.115-.018.162s-.029.087-.051.119c-.023.032-.05.056-.083.073s-.07.024-.112.024c-.042 0-.079-.008-.111-.024s-.061-.041-.084-.073c-.023-.033-.041-.072-.053-.119s-.018-.101-.018-.162v-.062c0-.061.006-.115.018-.162s.029-.086.052-.118c.023-.032.051-.056.083-.072s.07-.025.111-.025.079.008.112.025c.033.016.061.04.083.072s.04.071.052.118c.012.047.018.1.018.162z"/>
    </symbol>
    <symbol id="customer2" viewBox="8 7 17 17">
      <path d="M15.42 9.211h-.042c-.065-.004-.129-.005-.194-.007h-.14c-.122 0-.247.003-.371.009-.009-.001-.019-.001-.028 0-1.121.064-2.22.344-3.236.825l-.133.064v6.813l.311-.106c.273-.094.564-.178.866-.257.814-.209 1.65-.32 2.491-.331v.895c-.111.001-.22.004-.328.009h-.026c-.647.035-1.289.134-1.916.294-.795.199-1.562.498-2.283.89V9.572c.749-.437 1.555-.765 2.395-.974.738-.19 1.496-.288 2.257-.291h.132c.157.004.311.011.455.022.379.027.756.087 1.125.179v.881c-.358-.084-.723-.138-1.09-.164-.007-.001-.015-.001-.022-.002-.076-.006-.152-.013-.223-.013zm1.55.9c.195.015.398.022.602.022.801-.003 1.598-.105 2.373-.304.795-.2 1.561-.499 2.282-.89v8.582c-.749.436-1.556.764-2.396.974-.738.19-1.496.287-2.257.29-.577.005-1.152-.063-1.712-.202V9.946c.132.03.269.059.407.082.227.038.467.066.701.084zm4.368.067-.311.105c-.286.096-.575.182-.866.259-.845.217-1.714.329-2.587.332-.203 0-.39-.005-.571-.017l-.248-.016v7.008l.213.019c.198.017.402.026.607.026.687-.003 1.371-.091 2.037-.264.548-.137 1.081-.329 1.592-.572l.133-.064v-6.815zM10.996 21.296c-.045-.046-.099-.083-.158-.107s-.124-.035-.188-.033c-.069-.001-.136.012-.2.038-.058.023-.111.058-.156.102s-.078.098-.1.157c-.024.061-.037.127-.036.193v1.167c-.003.082.013.164.046.239.028.06.067.113.117.157.047.039.101.068.16.083.057.016.115.024.174.024.065.001.129-.013.188-.041.058-.026.111-.062.156-.108.043-.045.078-.098.102-.157s.038-.122.037-.186v-.131h-.305v.104c.001.036-.005.071-.018.104-.01.025-.025.047-.044.066-.019.015-.041.027-.064.034-.021.007-.042.011-.064.011-.027.003-.055-.001-.08-.012s-.047-.028-.063-.051c-.029-.047-.043-.101-.04-.157v-1.088c-.002-.06.011-.12.037-.174.016-.025.038-.044.065-.057s.056-.017.085-.014c.026-.001.052.005.076.016s.044.029.06.05c.034.045.052.1.051.157v.101h.302v-.119c.001-.07-.012-.139-.037-.204-.023-.061-.057-.117-.102-.164zM12.809 21.283c-.097-.082-.22-.128-.347-.128-.062 0-.124.011-.182.033s-.114.054-.161.095c-.051.045-.091.101-.118.164-.031.071-.046.148-.044.226v1.12c-.002.079.013.157.044.229.028.06.068.114.118.156.047.043.101.077.161.099.058.021.12.033.182.033s.124-.011.182-.033c.061-.022.117-.056.165-.099s.088-.097.115-.156c.031-.072.046-.151.044-.229v-1.12c.002-.078-.014-.155-.044-.226-.027-.062-.066-.117-.115-.164zm-.143 1.509c.003.03-.002.06-.012.088s-.027.053-.049.074c-.04.034-.091.052-.144.052s-.103-.019-.144-.052c-.022-.021-.038-.046-.049-.074s-.015-.058-.012-.088v-1.12c-.003-.03.002-.06.012-.088s.027-.053.049-.074c.04-.034.091-.052.144-.052s.103.019.144.052c.021.021.038.046.049.074s.015.058.012.088v1.12zM15.19 23.292v-2.12h-.293l-.385 1.122h-.005l-.388-1.122h-.29v2.12h.303v-1.289h.005l.297.912h.151l.299-.912h.005v1.289h.303zM16.91 21.321c-.047-.052-.105-.092-.171-.116-.071-.023-.145-.034-.22-.033h-.45v2.12h.302v-.828h.156c.094.004.188-.016.272-.058.069-.038.126-.094.166-.162.035-.056.058-.119.069-.185.012-.08.017-.16.016-.241.003-.102-.007-.204-.03-.303-.02-.073-.058-.14-.111-.195zm-.155.646c-.001.038-.011.076-.028.11-.017.033-.045.059-.078.074-.045.02-.094.029-.142.027h-.138v-.721h.156c.047-.002.094.007.136.027.031.018.056.045.071.078.017.037.026.077.026.118v.141c0 .049.003.1 0 .146h-.003zM18.341 21.173h-.248l-.467 2.12h.302l.089-.455h.412l.089.455h.302l-.479-2.12zm-.279 1.375.149-.768h.005l.148.768h-.302zM20.292 22.449h-.005l-.456-1.277h-.29v2.12h.302v-1.275h.006l.462 1.275h.284v-2.12h-.302v1.277zM22.138 21.173l-.243.843h-.006l-.243-.843h-.32l.415 1.224v.896h.302v-.896l.415-1.224h-.32zM10.154 23.891h.146v.408h.099v-.408h.145v-.084h-.389v.084zM11.377 23.807l-.191.492h.105l.04-.112h.196l.042.112h.107l-.195-.492h-.105zm-.015.297.067-.182.067.182h-.134zM12.587 24.118h.114v.063c-.033.027-.074.041-.117.041-.02.001-.04-.003-.058-.011s-.034-.021-.046-.036c-.026-.037-.039-.083-.037-.128 0-.11.047-.164.142-.164.025-.003.05.004.07.018s.035.036.041.06l.097-.019c-.021-.096-.09-.145-.209-.145-.063-.002-.125.021-.172.063-.025.024-.044.054-.056.087s-.017.068-.015.103c-.003.067.02.133.063.185.024.025.053.044.086.057s.067.018.101.015c.077.002.152-.026.209-.078v-.194h-.213v.083zM13.822 23.807h-.1v.492h.345v-.084h-.245v-.408zM14.867 23.807h-.1v.492h.1v-.492zM15.888 24.136l-.202-.329h-.097v.492h.093v-.322l.198.322h.099v-.492h-.091v.329zM16.811 24.082h.245v-.084h-.245v-.108h.264v-.084h-.363v.492h.374v-.084h-.274v-.133zM19.05 24.001h-.194v-.194h-.099v.492h.099v-.215h.194v.215h.099v-.492h-.099v.194zM19.979 24.082h.246v-.084h-.246v-.108h.265v-.084h-.363v.492h.373v-.084h-.274v-.133zM21.238 24.082c.086-.013.129-.059.129-.137.003-.021-.001-.042-.009-.061s-.022-.036-.039-.048c-.045-.022-.094-.032-.144-.029h-.209v.492h.099v-.206h.019c.021-.001.042.002.061.011.014.009.026.021.035.036l.107.157h.118l-.06-.096c-.026-.047-.064-.088-.109-.118zm-.1-.068h-.073v-.124h.078c.034-.003.068.001.1.012.007.006.013.014.017.023s.005.018.005.028c0 .01-.003.019-.008.027s-.011.016-.019.021c-.032.01-.067.014-.1.012zM22.188 24.082h.245v-.084h-.245v-.108h.265v-.084h-.364v.492h.374v-.084h-.274v-.133z"/>
    </symbol>
    <symbol id="customer3" viewBox="8 7 17 17">
      <path d="M11.326 22.53c.005 0 .01.001.014.003s.009.004.012.007l.068.064c-.053.052-.118.093-.191.121-.086.031-.178.046-.271.044-.087.002-.174-.012-.255-.041-.073-.026-.138-.065-.192-.115-.055-.051-.097-.112-.124-.177-.03-.073-.044-.15-.043-.227-.001-.078.015-.155.047-.228.03-.066.074-.126.132-.177s.127-.089.204-.115c.084-.028.173-.041.262-.041.083-.002.166.011.244.037.067.025.129.06.183.102l-.057.068c-.004.005-.009.009-.014.012-.007.004-.015.006-.023.005s-.017-.003-.025-.007l-.031-.018-.042-.023c-.018-.009-.037-.016-.057-.023-.025-.008-.051-.014-.077-.018-.033-.005-.067-.008-.101-.007-.065-.001-.129.01-.189.03-.056.019-.106.048-.148.086-.042.04-.075.086-.096.136-.024.058-.036.119-.035.18-.001.062.011.124.035.183.021.05.053.096.094.136.039.037.087.066.141.084.055.02.115.029.175.029.035 0 .069-.002.104-.006.056-.006.11-.022.157-.049.024-.013.046-.028.067-.045.009-.007.02-.011.032-.012zM13.288 22.209c.001.077-.014.154-.046.226-.028.065-.071.125-.128.175s-.125.089-.201.115c-.166.054-.35.054-.516 0-.075-.026-.143-.066-.2-.115-.057-.051-.101-.111-.129-.177-.061-.146-.061-.306 0-.452.029-.066.073-.126.129-.178.057-.048.125-.086.2-.111.166-.055.35-.055.516 0 .075.026.144.065.2.115s.1.11.128.175c.031.073.047.15.046.227zm-.178 0c.001-.062-.01-.123-.032-.181-.019-.05-.05-.096-.091-.136-.04-.037-.089-.067-.144-.086-.121-.04-.255-.04-.375 0-.055.019-.104.048-.144.086-.041.039-.073.085-.092.136-.043.118-.043.245 0 .363.019.05.05.096.092.136.04.037.089.066.144.085.121.039.254.039.375 0 .055-.019.104-.048.144-.085.041-.04.072-.086.091-.136.023-.058.034-.12.032-.181zM14.627 22.4l.018.041c.007-.015.013-.028.02-.041s.014-.027.022-.04l.434-.674c.008-.012.016-.019.025-.021.012-.003.024-.004.036-.004h.128v1.096h-.152V21.917c0-.012-.001-.025 0-.038l-.437.684c-.006.01-.014.019-.026.025s-.024.009-.037.009h-.025c-.013 0-.026-.003-.037-.009s-.02-.015-.025-.025l-.449-.688V22.755h-.147v-1.094h.128c.012-.001.024.001.036.004.011.004.019.012.024.021l.443.675c.009.012.016.026.022.039zM16.26 22.345v.411h-.17v-1.095h.379c.072-.001.143.007.211.024.055.013.106.037.149.068.038.03.067.066.085.107.02.045.03.092.029.14.001.048-.01.096-.031.14-.02.042-.052.079-.092.11-.044.033-.095.058-.15.073-.066.018-.135.027-.205.025l-.206-.003zm0-.117h.206c.045 0 .089-.005.132-.017.035-.01.067-.026.095-.047.026-.02.045-.045.058-.073.014-.029.021-.061.02-.092.002-.03-.004-.061-.017-.089s-.033-.054-.059-.075c-.065-.043-.146-.064-.228-.059h-.206v.451zM18.543 22.757h-.134c-.013 0-.027-.003-.037-.01-.01-.007-.017-.016-.022-.025l-.116-.265h-.58l-.12.265c-.004.01-.012.018-.021.025-.011.007-.024.011-.038.011h-.134l.51-1.097h.177l.516 1.097zm-.841-.407h.479l-.202-.446c-.015-.034-.028-.068-.038-.103l-.02.057c-.006.017-.013.033-.019.046l-.2.446zM19.277 21.666c.01.005.019.011.025.02l.743.827v-.851h.152v1.097h-.085c-.012 0-.024-.002-.035-.007s-.02-.012-.027-.02l-.742-.826c.001.013.001.025 0 .038s0 .023 0 .033v.782h-.152v-1.097h.09c.011 0 .021.002.031.005zM21.449 22.321v.435h-.17v-.435l-.47-.66h.152c.013-.001.026.003.037.009.009.007.017.015.023.025l.294.426c.012.018.022.035.031.051s.015.031.021.046l.022-.047c.008-.017.018-.034.029-.05l.29-.429c.006-.009.014-.016.022-.023.01-.008.023-.011.037-.011h.154l-.471.663zM14.543 19.821c.074.008.149.015.224.02 1.146-.438 2.115-1.155 2.787-2.061s1.016-1.961.99-3.034l-1.263-1.079c.257 1.142.137 2.322-.347 3.409s-1.312 2.037-2.391 2.745z"/>
      <path d="m14.092 19.77.034.006c1.154-.705 2.034-1.69 2.525-2.827s.573-2.374.233-3.55l-1.799-1.537c.728 1.263 1.02 2.677.845 4.077s-.813 2.728-1.838 3.831zM20.192 16.013c-.306 1.178-1.048 2.241-2.117 3.03-.312.232-.649.438-1.006.617.87-.219 1.67-.605 2.338-1.129s1.186-1.173 1.514-1.895l-.73-.623z"/>
      <path d="m19.906 15.839-1.039-.887c-.02 1.012-.357 2.001-.975 2.864s-1.496 1.569-2.542 2.044h.005c.233 0 .466-.012.697-.036.977-.341 1.841-.883 2.513-1.578s1.133-1.522 1.34-2.406zM14.242 11.214l-1.239-1.06c-1.108.366-2.061 1.009-2.734 1.845s-1.035 1.826-1.038 2.841c.004 1.121.446 2.209 1.255 3.092s1.94 1.509 3.213 1.781c1.137-1.183 1.802-2.645 1.9-4.173s-.378-3.043-1.357-4.325zM22.769 15.676c-.005-1.33-.625-2.605-1.726-3.546s-2.593-1.471-4.15-1.475c-.719-.001-1.433.113-2.104.335l7.587 6.482c.26-.573.393-1.182.392-1.797z"/>
    </symbol>
    <symbol id="customer4" viewBox="8 7 17 17">
      <path d="M9.409 13.339h-.001c-.734 0-1.329.537-1.329 1.198v.001c0 .662.595 1.198 1.329 1.198h.001c.734 0 1.329-.537 1.329-1.198v-.001c0-.662-.595-1.198-1.329-1.198zM19.219 12.956c-.002-.919-.408-1.8-1.129-2.45s-1.698-1.016-2.717-1.018c-1.02.002-1.997.368-2.719 1.018s-1.127 1.531-1.129 2.451v5.069s7.693-.773 7.694-5.068v-.001zM5.385 19.689c.002.64.284 1.253.786 1.705s1.181.707 1.891.709c.709-.002 1.389-.257 1.89-.709s.784-1.065.786-1.704v-3.527s-5.353.538-5.353 3.526zm2.676.631c-.139 0-.274-.037-.389-.107s-.205-.168-.258-.284c-.053-.115-.067-.243-.04-.365s.094-.235.192-.324c.098-.088.223-.149.359-.173s.277-.012.405.036.238.129.315.233.118.226.118.351c0 .083-.018.166-.053.243s-.087.147-.152.206-.143.106-.228.138-.177.048-.269.048v-.002zM12.957 19.184v1.313h-.27v-1.313h.27zm.522.561v.211h-.597v-.211h.597zm.064-.561v.212h-.66v-.212h.66zm1.234.626v.062c0 .1-.014.189-.041.269s-.065.147-.114.203c-.049.055-.108.098-.177.127s-.143.044-.226.044c-.082 0-.158-.015-.226-.044s-.127-.072-.177-.127c-.05-.056-.089-.123-.116-.203s-.041-.169-.041-.269v-.062c0-.1.014-.19.041-.269s.065-.147.114-.203c.05-.056.109-.099.177-.128s.144-.044.226-.044c.083 0 .158.015.226.044s.127.072.177.128c.05.056.088.123.115.203s.041.168.041.269zm-.273.062v-.064c0-.07-.006-.131-.019-.184s-.031-.097-.056-.133c-.025-.036-.055-.063-.09-.081s-.076-.028-.122-.028-.086.009-.122.028c-.035.018-.065.045-.089.081s-.042.081-.055.133-.019.114-.019.184v.064c0 .069.006.13.019.184s.031.098.056.134c.025.036.055.063.09.082s.076.028.122.028.086-.009.122-.028.065-.046.089-.082c.024-.037.042-.081.055-.134s.019-.115.019-.184zm1.151.281c0-.023-.004-.044-.011-.063s-.019-.037-.038-.052c-.019-.016-.045-.032-.078-.048s-.077-.032-.131-.049c-.059-.019-.116-.041-.169-.065s-.1-.052-.141-.084c-.04-.032-.072-.07-.096-.113s-.034-.092-.034-.149c0-.055.012-.104.036-.149s.058-.084.101-.115c.043-.032.094-.057.153-.075s.125-.026.196-.026c.097 0 .181.017.253.052s.128.083.168.143c.04.061.06.13.06.208h-.269c0-.038-.008-.072-.024-.101s-.04-.053-.072-.069c-.032-.017-.072-.025-.121-.025-.047 0-.086.007-.117.022s-.055.033-.07.057c-.016.023-.023.05-.023.079 0 .022.005.042.016.06s.028.035.05.05.05.03.082.044c.032.014.07.027.113.041.072.022.134.046.188.073s.1.057.137.091.064.072.083.114c.019.043.028.091.028.145 0 .057-.011.108-.033.153s-.054.083-.096.114-.092.055-.151.071-.123.024-.196.024c-.065 0-.129-.008-.192-.025s-.12-.044-.172-.078c-.051-.035-.092-.079-.123-.133s-.046-.118-.046-.192h.271c0 .041.006.075.019.104s.03.051.053.069c.023.017.051.03.083.038s.068.012.106.012c.047 0 .085-.007.115-.02s.053-.032.068-.055c.015-.023.023-.05.023-.079zm1.042-.969v1.313h-.27v-1.313h.27zm.404 0v.212H16.03v-.212h1.071zm1.034 1.102v.211h-.699v-.211h.699zm-.61-1.102v1.313h-.27v-1.313h.27zm.519.535v.206h-.608v-.206h.608zm.09-.535v.212h-.698v-.212h.698zm.159 0h.489c.1 0 .187.015.259.045s.129.075.168.133.059.131.059.217c0 .07-.012.131-.036.181s-.057.092-.1.125c-.043.033-.093.059-.151.079l-.086.045h-.425l-.002-.211h.316c.047 0 .087-.008.118-.025s.055-.04.07-.07c.016-.03.024-.065.024-.105 0-.042-.008-.078-.023-.109s-.039-.054-.071-.07c-.032-.016-.072-.024-.12-.024h-.219v1.101h-.27v-1.313zm.734 1.313-.299-.585.286-.002.303.574v.013h-.289zm1.42-.468h-.334v-.211h.334c.052 0 .094-.008.126-.025s.056-.041.071-.072.023-.065.023-.104c0-.039-.008-.075-.023-.109s-.039-.061-.071-.081c-.032-.02-.075-.031-.126-.031h-.241v1.101h-.27v-1.313h.511c.103 0 .191.019.264.056s.13.087.169.152.059.139.059.223c0 .085-.02.158-.059.22s-.096.11-.169.143c-.073.034-.161.05-.264.05zm1.559.257v.211h-.699v-.211h.699zm-.61-1.102v1.313h-.27v-1.313h.27zm.519.535v.206h-.608v-.206h.608zm.09-.535v.212h-.698v-.212h.698zm.764 0v1.313h-.27v-1.313h.27zm.404 0v.212h-1.071v-.212h1.071zm1.034 1.102v.211h-.699v-.211h.699zm-.61-1.102v1.313h-.27v-1.313h.27zm.519.535v.206h-.608v-.206h.608zm.091-.535v.212h-.698v-.212h.698zm.158 0h.489c.1 0 .187.015.259.045s.129.075.168.133.059.131.059.217c0 .07-.012.131-.036.181s-.057.092-.1.125c-.043.033-.093.059-.151.079l-.086.045h-.425l-.002-.211h.316c.047 0 .087-.008.118-.025s.055-.04.07-.07c.016-.03.024-.065.024-.105 0-.042-.008-.078-.023-.109s-.039-.054-.071-.07c-.032-.016-.072-.024-.12-.024h-.219v1.101h-.27v-1.313zm.734 1.313-.299-.585.286-.002.303.574v.013H25.1zm1.132-.344c0-.023-.004-.044-.011-.063s-.019-.037-.038-.052c-.019-.016-.045-.032-.078-.048s-.077-.032-.131-.049c-.059-.019-.116-.041-.169-.065s-.1-.052-.141-.084c-.04-.032-.072-.07-.096-.113s-.034-.092-.034-.149c0-.055.012-.104.036-.149s.058-.084.101-.115c.043-.032.094-.057.153-.075s.125-.026.196-.026c.097 0 .181.017.253.052s.128.083.168.143c.04.061.06.13.06.208h-.269c0-.038-.008-.072-.024-.101s-.04-.053-.072-.069c-.032-.017-.072-.025-.121-.025-.047 0-.086.007-.117.022s-.055.033-.07.057c-.016.023-.023.05-.023.079 0 .022.005.042.016.06s.028.035.05.05.05.03.082.044c.032.014.07.027.113.041.072.022.134.046.188.073s.1.057.137.091.064.072.083.114c.019.043.028.091.028.145 0 .057-.011.108-.033.153s-.054.083-.096.114-.092.055-.151.071-.123.024-.196.024c-.065 0-.129-.008-.192-.025s-.12-.044-.172-.078c-.051-.035-.092-.079-.123-.133s-.046-.118-.046-.192h.271c0 .041.006.075.019.104s.03.051.053.069c.023.017.051.03.083.038s.068.012.106.012c.047 0 .085-.007.115-.02s.053-.032.068-.055c.015-.023.023-.05.023-.079z"/>
    </symbol>
    <symbol id="customer5" viewBox="8 7 17 17">
      <path d="M8.244 21.038c.075.084.116.19.114.298.004.071-.01.141-.04.206s-.077.123-.136.17c-.147.1-.329.149-.512.137h-.9v-1.887h.882c.174-.01.347.034.488.125.057.043.102.097.132.158s.043.128.039.195c.005.104-.031.206-.102.289-.068.075-.163.127-.268.148.119.02.227.077.304.161zm-1.056-.285h.377c.086.006.171-.017.24-.063.028-.023.05-.052.064-.084s.02-.066.017-.101c.003-.034-.003-.068-.017-.1s-.035-.061-.063-.084c-.071-.047-.159-.07-.247-.064h-.371v.495zm.653.724c.03-.024.054-.053.069-.086s.022-.069.02-.105c.002-.036-.005-.073-.021-.106s-.04-.063-.071-.087c-.074-.049-.164-.073-.256-.068h-.395v.519h.4c.09.005.179-.018.253-.065zM10.046 21.849l-.49-.737h-.184v.737H8.95v-1.887h.799c.201-.013.4.045.556.16.112.102.179.237.19.381s-.035.285-.13.4c-.099.102-.233.169-.381.192l.522.754h-.459zm-.675-.995h.345c.24 0 .359-.095.359-.286.002-.039-.004-.078-.019-.114s-.039-.07-.069-.098c-.076-.057-.173-.084-.271-.076h-.349l.004.574zM12.352 21.469h-.841l-.148.38h-.442l.772-1.866h.478l.769 1.866h-.442l-.145-.38zm-.113-.285-.307-.796-.307.796h.614zM15.238 21.849h-.419l-.939-1.283v1.283h-.418v-1.887h.418l.939 1.291v-1.291h.419v1.887zM17.628 21.397c-.087.142-.219.258-.379.333-.182.083-.385.124-.589.119h-.745v-1.887h.745c.204-.005.406.035.589.116.16.073.292.187.379.329.086.153.131.323.131.495s-.045.342-.131.495zm-.479-.045c.119-.125.185-.285.185-.45s-.066-.325-.185-.45c-.144-.114-.333-.171-.524-.16h-.291v1.221h.291c.191.011.38-.047.524-.16zM12.614 9.467s5.405 1.837 5.291 4.496v4.496s-5.401-1.838-5.288-4.496l-.002-4.496zM22.72 17.406c1.021-.632 2.202-1.024 3.434-1.139v-1.408c-1.42.493-2.625 1.386-3.434 2.547z"/>
      <path d="M22.106 17.83c.835-1.515 2.284-2.683 4.047-3.266v-4.056s-7.698 2.617-7.535 6.403v6.402s.343-.117.883-.336c0-.205 0-.411.025-.619.159-1.758 1.087-3.386 2.58-4.528z"/>
      <path d="M21.374 20.208c.04-.444.131-.883.269-1.311-.93.986-1.492 2.209-1.61 3.498-.011.122-.017.243-.02.369.437-.189.946-.425 1.481-.702-.136-.61-.177-1.234-.12-1.854zM21.68 20.231c-.051.561-.019 1.125.095 1.679 2.103-1.133 4.466-2.883 4.375-4.999v-.184c-1.503.151-2.908.743-4.001 1.683-.256.583-.414 1.197-.469 1.821z"/>
    </symbol>
    <symbol id="customer6" viewBox="8 7 17 17">
      <path d="M16.471 15.829c-.137-.182-.202-.397-.186-.613v-.889c0-.272.062-.479.185-.621s.336-.212.637-.212c.283 0 .484.06.602.181.13.154.193.342.178.532v.209h-.506v-.212c.002-.069-.003-.139-.015-.207-.007-.047-.033-.09-.072-.123-.052-.035-.117-.052-.183-.048-.069-.004-.138.014-.193.051-.044.036-.073.084-.084.136-.015.073-.021.146-.02.22v1.079c-.008.104.014.208.065.303.025.032.06.057.101.073s.086.022.131.017c.065.005.129-.013.179-.049.041-.035.068-.081.075-.131.012-.072.017-.144.016-.216v-.219h.506v.2c.014.198-.047.394-.175.559-.116.132-.314.198-.606.198s-.511-.07-.636-.217zM18.577 15.838c-.128-.138-.192-.34-.192-.607v-.935c0-.264.064-.464.192-.599s.341-.203.641-.203c.297 0 .51.068.638.203s.193.335.193.599v.935c0 .264-.065.466-.195.606s-.341.209-.636.209c-.294 0-.512-.07-.641-.208zm.877-.224c.046-.087.067-.182.061-.277v-1.144c.006-.093-.015-.186-.06-.271-.026-.033-.061-.059-.103-.075s-.088-.021-.133-.016c-.045-.005-.092 0-.134.016s-.078.042-.104.074c-.046.085-.067.178-.061.271v1.15c-.006.095.015.19.061.277.029.029.066.053.107.069s.085.024.13.024.089-.008.13-.024.077-.039.107-.069v-.005zM20.658 13.522h.545l.41 1.725.419-1.725h.53l.053 2.489h-.392l-.042-1.73-.404 1.73h-.314l-.419-1.736-.039 1.736h-.396l.049-2.489zM23.226 13.522h.849c.489 0 .733.236.733.707 0 .451-.257.677-.772.676h-.289v1.106h-.524l.003-2.489zm.724 1.064c.052.006.104.002.154-.012s.095-.036.134-.067c.06-.084.087-.183.075-.281.003-.076-.006-.152-.025-.226-.007-.025-.021-.048-.039-.068s-.041-.037-.066-.05c-.073-.03-.153-.044-.234-.04h-.203v.744h.203zM25.563 13.522h.563l.577 2.489h-.488l-.114-.574h-.502l-.117.574h-.495l.577-2.489zm.481 1.627-.196-1.045-.196 1.045h.392zM27.169 13.522h.367l.702 1.42v-1.42h.435v2.489h-.349l-.706-1.482v1.482h-.449l.001-2.489zM29.69 15.062l-.584-1.537h.491l.356.987.334-.987h.481l-.576 1.537v.949h-.503v-.949zM17.279 17.1v.13h-.427v1.012h-.179V17.23h-.43v-.13h1.036zM18.619 18.241h-.138c-.014.001-.028-.003-.039-.011-.01-.007-.018-.016-.023-.026l-.124-.271h-.593l-.124.271c-.004.011-.01.022-.019.031-.011.008-.025.011-.039.011h-.138l.524-1.142h.182l.53 1.137zm-.867-.424h.494l-.21-.465c-.015-.035-.028-.071-.039-.108-.007.022-.014.043-.02.061l-.019.048-.207.464zM19.522 18.129c.033.001.066.001.099 0 .028-.003.056-.007.084-.014.026-.005.051-.012.075-.021.023-.008.046-.018.07-.028v-.257h-.21c-.005 0-.01 0-.015-.002s-.009-.004-.013-.007c-.003-.003-.006-.006-.008-.009s-.003-.008-.003-.011v-.088h.406v.438c-.033.02-.068.039-.105.054s-.076.029-.116.039c-.043.011-.087.019-.131.023-.051.005-.102.007-.153.007-.09.001-.18-.014-.264-.043-.078-.027-.15-.068-.209-.119-.058-.052-.104-.113-.135-.181-.033-.076-.049-.156-.048-.237-.001-.081.015-.162.047-.239.03-.068.076-.129.135-.181s.131-.092.209-.118c.09-.029.185-.044.281-.043.049 0 .097.003.146.01.043.006.084.016.125.029.037.012.072.027.105.045s.063.038.091.06l-.05.071c-.004.006-.01.012-.017.016s-.015.006-.024.006c-.012 0-.023-.003-.032-.009-.016-.007-.032-.016-.051-.027-.022-.012-.046-.022-.07-.031-.031-.011-.063-.019-.096-.025-.044-.007-.088-.01-.133-.01-.069-.001-.138.01-.202.032-.058.02-.111.051-.154.09-.043.041-.077.089-.097.142-.047.124-.047.257 0 .381.023.054.059.103.105.144.043.039.095.07.153.09.067.02.137.027.207.023zM21.192 18.111h.572v.13h-.747v-1.142h.179l-.004 1.012zM22.359 18.241h-.179v-1.142h.179v1.142zM23.025 17.105c.011.005.02.012.027.021l.766.861c-.001-.014-.001-.027 0-.041v-.851h.156v1.146h-.09c-.013.001-.027-.001-.039-.006-.011-.006-.02-.013-.028-.022l-.765-.86V18.241h-.15v-1.142h.093c.01 0 .02.002.029.005zM25.293 17.1v.126h-.635v.377h.514v.121h-.514v.39h.635v.126h-.819v-1.139h.819zM6.522 10.049l7.954 1.949v6.829l-7.954-1.948v-6.83zm-.511-.582v7.744l8.974 2.199v-7.743l-8.974-2.2z"/>
      <path d="m10.821 23.005-8.975-2.201v-7.743l8.975 2.2v7.744z"/>
      <path d="m6.16 9.961 7.851 1.925-3.339 2.882-7.852-1.925 3.34-2.881zm-.149-.494-4.165 3.594 8.975 2.2 4.164-3.594-8.974-2.2zM11.326 22.57l3.659-3.158-3.659-.898v4.056z"/>
    </symbol>
    <symbol id="name" viewBox="0 0 32 32">
      <path d="M16 16c2.21 0 4-1.79 4-4s-1.79-4-4-4-4 1.79-4 4 1.79 4 4 4zm0 2c-2.67 0-8 1.34-8 4v1c0 .55.45 1 1 1h14c.55 0 1-.45 1-1v-1c0-2.66-5.33-4-8-4z"/>
    </symbol>
    <symbol id="phone" viewBox="0 0 32 32">
      <path d="m23.635 18.487-2.451-.28c-.589-.067-1.167.135-1.582.55l-1.775 1.775c-2.731-1.389-4.969-3.618-6.359-6.359l1.785-1.785c.415-.415.618-.994.55-1.582l-.28-2.432c-.116-.975-.936-1.708-1.92-1.708H9.934c-1.09 0-1.997.907-1.93 1.997.511 8.24 7.102 14.821 15.332 15.332 1.09.068 1.997-.839 1.997-1.93v-1.669c.01-.975-.724-1.795-1.698-1.911z"/>
    </symbol>
    <symbol id="email" viewBox="0 0 32 32">
      <path d="M24 8H8c-1.1 0-1.99.9-1.99 2L6 22c0 1.1.9 2 2 2h16c1.1 0 2-.9 2-2V10c0-1.1-.9-2-2-2zm-.4 4.25-7.07 4.42c-.32.2-.74.2-1.06 0L8.4 12.25c-.25-.16-.4-.43-.4-.72 0-.67.73-1.07 1.3-.72L16 15l6.7-4.19c.57-.35 1.3.05 1.3.72 0 .29-.15.56-.4.72z"/>
    </symbol>
    <symbol id="close" viewBox="0 0 32 32">
      <path fill="#e7e9fc" stroke="#2e2f42" stroke-width="1.3333" d="M31.333 16c0 8.468-6.865 15.333-15.333 15.333S.667 24.468.667 16 7.532.667 16 .667 31.333 7.532 31.333 16z" opacity=".1" style="fill: var(--color5, #e7e9fc); stroke: var(--color1, #2e2f42)"/>
      <path d="m21.333 11.741-1.074-1.074L16 14.926l-4.259-4.259-1.074 1.074L14.926 16l-4.259 4.259 1.074 1.074L16 17.074l4.259 4.259 1.074-1.074L17.074 16l4.259-4.259z"/>
    </symbol>
  </defs>
</svg>
